<?xml version="1.0" encoding="utf-8"?>
<!-- Generator: Adobe Illustrator 17.0.0, SVG Export Plug-In . SVG Version: 6.00 Build 0)  -->
<!DOCTYPE svg PUBLIC "-//W3C//DTD SVG 1.1//EN" "http://www.w3.org/Graphics/SVG/1.1/DTD/svg11.dtd">
<svg version="1.1" id="Layer_1" xmlns="http://www.w3.org/2000/svg" xmlns:xlink="http://www.w3.org/1999/xlink" x="0px" y="0px"
	 width="97.595px" height="57.001px" viewBox="0 0 97.595 57.001" enable-background="new 0 0 97.595 57.001" xml:space="preserve">
<g id="cloud2">
	<path fill-rule="evenodd" clip-rule="evenodd" fill="#F2FFFA" d="M75.159,4.264c6.362,5,7.734,14.602,4.394,24.425
		c4.103-2.091,8.386-2.223,11.318,0.081c4.677,3.676,4.143,12.159-1.193,18.948c-5.336,6.788-13.453,9.312-18.13,5.636
		c-2.17-1.705-3.217-4.446-3.184-7.572c-6.238,5.832-13.562,9.258-20.086,9.256l-34.256-0.012c-2.109-0.001-4.05-0.773-5.659-2.038
		c-5.689-4.472-5.04-14.792,1.452-23.05c6.491-8.259,16.366-11.328,22.055-6.857c0.89,0.699,1.624,1.541,2.206,2.496
		c1.409-3.547,3.427-7.089,6.045-10.42C50.433,2.037,66.121-2.84,75.159,4.264L75.159,4.264z"/>
	<path fill-rule="evenodd" clip-rule="evenodd" fill="#D0F2EC" d="M77.587,35.715c10.615-5.41,16.836,0.534,13.486,10.02
		c-0.421,0.673-0.886,1.336-1.395,1.984c-5.336,6.788-13.453,9.312-18.13,5.636c-2.17-1.705-3.217-4.446-3.184-7.571
		c-6.238,5.832-13.562,9.258-20.086,9.256l-34.256-0.012c-2.053-0.001-3.947-0.733-5.53-1.938
		C0.307,39.862,23.36,16.852,32.95,32.604C48.862-2.077,87.222,9.741,77.587,35.715L77.587,35.715z"/>
</g>
</svg>
