<?xml version="1.0" encoding="utf-8"?>
<!-- Generator: Adobe Illustrator 17.0.0, SVG Export Plug-In . SVG Version: 6.00 Build 0)  -->
<!DOCTYPE svg PUBLIC "-//W3C//DTD SVG 1.1//EN" "http://www.w3.org/Graphics/SVG/1.1/DTD/svg11.dtd">
<svg version="1.1" id="Layer_1" xmlns="http://www.w3.org/2000/svg" xmlns:xlink="http://www.w3.org/1999/xlink" x="0px" y="0px"
	 width="132.249px" height="63.791px" viewBox="0 0 132.249 63.791" enable-background="new 0 0 132.249 63.791"
	 xml:space="preserve">
<g id="cloud3">
	<path fill-rule="evenodd" clip-rule="evenodd" fill="#F2FFFA" d="M77.462,6.763c3.886,3.055,5.998,7.746,6.395,13.166
		c7.999-6.147,17.4-7.624,23.375-2.927c7.668,6.027,6.792,19.937-1.957,31.068c-6.034,7.677-14.237,12.011-21.262,12.011
		l-34.914-0.003c-4.056,0-7.812-1.036-10.851-3.424c-2.833-2.227-4.723-5.323-5.693-8.937c-0.613,1.022-1.303,2.029-2.072,3.007
		c-6.816,8.672-17.184,11.895-23.158,7.2c-5.973-4.695-5.29-15.531,1.525-24.202c6.816-8.672,17.184-11.895,23.157-7.2
		c0.934,0.734,1.706,1.618,2.316,2.621c1.48-3.724,3.599-7.443,6.348-10.941C51.499,4.424,67.972-0.697,77.462,6.763L77.462,6.763z
		 M125.683,42.335c4.369,3.434,5.172,9.702,1.793,14.001c-3.378,4.299-9.66,5-14.029,1.566c-4.369-3.434-5.172-9.703-1.793-14.001
		C115.033,39.601,121.314,38.901,125.683,42.335L125.683,42.335z"/>
	<path fill-rule="evenodd" clip-rule="evenodd" fill="#D0F2EC" d="M81.21,29.28c17.476-13.43,32.51-4.614,28.264,12.073
		c-1.1,2.292-2.5,4.557-4.198,6.717c-6.034,7.677-14.237,12.011-21.262,12.011l-34.914-0.003c-4.056,0-7.812-1.036-10.851-3.424
		c-2.833-2.227-4.723-5.323-5.693-8.937c-0.613,1.022-1.303,2.029-2.072,3.008c-6.816,8.672-17.184,11.895-23.158,7.199
		c-0.053-0.042-0.105-0.085-0.158-0.128c-7.927-16.59,15.863-37.282,25.864-20.86C42.941,11.994,82.974,2.633,81.21,29.28
		L81.21,29.28z M126.098,45.905c1.839,1.445,2.989,3.438,3.397,5.552c-0.206,1.728-0.871,3.417-2.02,4.878
		c-3.378,4.299-9.66,5-14.029,1.566c-0.504-0.396-0.96-0.83-1.368-1.295c-1.31-2.988-0.991-6.554,1.14-9.265
		C116.321,43.396,122.087,42.752,126.098,45.905L126.098,45.905z"/>
</g>
</svg>
