<?xml version="1.0" encoding="utf-8"?>
<!-- Generator: Adobe Illustrator 17.0.0, SVG Export Plug-In . SVG Version: 6.00 Build 0)  -->
<!DOCTYPE svg PUBLIC "-//W3C//DTD SVG 1.1//EN" "http://www.w3.org/Graphics/SVG/1.1/DTD/svg11.dtd">
<svg version="1.1" id="Layer_1" xmlns="http://www.w3.org/2000/svg" xmlns:xlink="http://www.w3.org/1999/xlink" x="0px" y="0px"
	 width="123.762px" height="57.001px" viewBox="0 0 123.762 57.001" enable-background="new 0 0 123.762 57.001"
	 xml:space="preserve">
<g id="cloud">
	<path fill-rule="evenodd" clip-rule="evenodd" fill="#F2FFFA" d="M72.402,5.056c3.679,2.892,5.678,7.333,6.054,12.464
		c7.572-5.819,16.471-7.217,22.128-2.771c7.259,5.706,6.43,18.873-1.853,29.41c-5.712,7.267-13.477,11.37-20.127,11.37
		l-33.051-0.003c-3.839,0-7.395-0.981-10.272-3.241c-2.681-2.108-4.471-5.039-5.389-8.46c-0.58,0.967-1.233,1.92-1.962,2.847
		c-6.452,8.209-16.267,11.26-21.922,6.815C0.353,49.042,1,38.784,7.451,30.576c6.452-8.209,16.267-11.261,21.922-6.816
		c0.884,0.695,1.615,1.532,2.192,2.481c1.401-3.526,3.407-7.046,6.009-10.357C47.825,2.842,63.418-2.006,72.402,5.056L72.402,5.056z
		 M118.05,38.73c4.136,3.251,4.896,9.185,1.698,13.254c-3.198,4.07-9.144,4.733-13.28,1.482c-4.136-3.251-4.896-9.185-1.698-13.255
		C107.968,36.142,113.914,35.479,118.05,38.73L118.05,38.73z"/>
	<path fill-rule="evenodd" clip-rule="evenodd" fill="#D0F2EC" d="M75.95,26.371c16.544-12.713,30.775-4.368,26.756,11.429
		c-1.041,2.169-2.367,4.314-3.974,6.359c-5.712,7.267-13.477,11.37-20.127,11.37l-33.051-0.003c-3.839,0-7.395-0.981-10.272-3.242
		c-2.681-2.108-4.471-5.039-5.389-8.46c-0.58,0.967-1.233,1.92-1.962,2.847c-6.452,8.209-16.267,11.26-21.922,6.815
		c-0.051-0.04-0.1-0.081-0.149-0.122C-1.645,37.66,20.875,18.072,30.343,33.618C39.723,10.008,77.62,1.147,75.95,26.371
		L75.95,26.371z M118.443,42.11c1.741,1.368,2.83,3.255,3.216,5.256c-0.195,1.636-0.825,3.235-1.912,4.618
		c-3.198,4.07-9.144,4.733-13.28,1.482c-0.477-0.375-0.909-0.786-1.295-1.226c-1.24-2.829-0.938-6.204,1.08-8.77
		C109.187,39.734,114.646,39.125,118.443,42.11L118.443,42.11z"/>
</g>
</svg>
