<?xml version="1.0" encoding="utf-8"?>
<!-- Generator: Adobe Illustrator 17.0.0, SVG Export Plug-In . SVG Version: 6.00 Build 0)  -->
<!DOCTYPE svg PUBLIC "-//W3C//DTD SVG 1.1//EN" "http://www.w3.org/Graphics/SVG/1.1/DTD/svg11.dtd">
<svg version="1.1" id="Layer_1" xmlns="http://www.w3.org/2000/svg" xmlns:xlink="http://www.w3.org/1999/xlink" x="0px" y="0px"
	 width="1026.6px" height="367.75px" viewBox="0 0 1026.6 367.75" enable-background="new 0 0 1026.6 367.75" xml:space="preserve">
<g>
	<polygon fill-rule="evenodd" clip-rule="evenodd" fill="#7DC1F9" points="0,-0.002 1026.6,-0.002 1026.6,253.102 0,253.102 
		0,-0.002 	"/>
	<path fill-rule="evenodd" clip-rule="evenodd" fill="#9AB4A7" d="M459.229,253.102h-59.57c21.653,0,46.823-61.61,59.57-61.61
		V253.102L459.229,253.102z"/>
	<path fill-rule="evenodd" clip-rule="evenodd" fill="#6F8B7D" d="M459.229,191.492c12.747,0,37.917,61.61,59.57,61.61h-59.57
		V191.492L459.229,191.492z"/>
	<path fill-rule="evenodd" clip-rule="evenodd" fill="#EEF5F2" d="M459.229,210.175c-0.116,0-0.235-0.022-0.357-0.064l-0.003-0.001
		c-0.06-0.021-0.122-0.046-0.184-0.077l-0.003-0.002c-0.062-0.031-0.125-0.066-0.189-0.106l-0.002-0.001
		c-0.064-0.04-0.128-0.084-0.193-0.133l-0.007-0.006c-0.064-0.048-0.128-0.1-0.193-0.157l-0.011-0.01
		c-0.064-0.056-0.129-0.116-0.195-0.18l-0.011-0.011c-0.065-0.064-0.131-0.131-0.197-0.202l-0.016-0.018
		c-0.065-0.07-0.13-0.143-0.196-0.219l-0.022-0.026c-0.065-0.076-0.131-0.155-0.197-0.237l-0.023-0.028
		c-0.065-0.08-0.13-0.164-0.195-0.25l-0.033-0.043c-0.065-0.086-0.131-0.175-0.198-0.267l-0.03-0.042
		c-0.063-0.087-0.126-0.176-0.189-0.267l-0.05-0.072c-0.063-0.091-0.126-0.183-0.189-0.278l-0.046-0.069
		c-0.061-0.092-0.123-0.187-0.185-0.283l-0.06-0.094c-0.06-0.093-0.12-0.188-0.181-0.284l-0.066-0.105
		c-0.058-0.092-0.116-0.186-0.174-0.281l-0.078-0.128c-0.056-0.092-0.113-0.186-0.17-0.28l-0.081-0.135
		c-0.051-0.085-0.102-0.172-0.153-0.259l-0.116-0.198l-0.138-0.237l-0.111-0.191l-0.132-0.231l-0.146-0.255
		c-3.718,3.273-6.74,5.725-7.972,5.725c-1.228,0-1.469-2.437-1.47-5.695c5.533-7.595,10.392-12.989,14.164-12.989V210.175
		L459.229,210.175z"/>
	<path fill-rule="evenodd" clip-rule="evenodd" fill="#CCD8D2" d="M459.229,210.175c0.116,0,0.235-0.022,0.357-0.064l0.003-0.001
		c0.06-0.021,0.122-0.046,0.184-0.077l0.003-0.002c0.062-0.031,0.125-0.066,0.189-0.106l0.002-0.001
		c0.064-0.04,0.128-0.084,0.193-0.133l0.007-0.006c0.064-0.048,0.128-0.1,0.193-0.157l0.011-0.01
		c0.064-0.056,0.129-0.116,0.195-0.18l0.011-0.011c0.065-0.064,0.131-0.131,0.198-0.202l0.016-0.018
		c0.065-0.07,0.13-0.143,0.196-0.219l0.022-0.026c0.065-0.076,0.131-0.155,0.197-0.237l0.022-0.028
		c0.065-0.08,0.13-0.164,0.195-0.25l0.033-0.043c0.065-0.086,0.131-0.175,0.198-0.267l0.03-0.042
		c0.063-0.087,0.126-0.176,0.189-0.267l0.05-0.072c0.063-0.091,0.126-0.183,0.189-0.278l0.046-0.069
		c0.061-0.092,0.123-0.187,0.185-0.283l0.06-0.094c0.06-0.093,0.12-0.188,0.181-0.284l0.066-0.105
		c0.058-0.092,0.116-0.186,0.174-0.281l0.078-0.128c0.056-0.092,0.113-0.186,0.17-0.28l0.081-0.135
		c0.051-0.085,0.102-0.172,0.153-0.259l0.116-0.198l0.138-0.237l0.111-0.191l0.132-0.231l0.146-0.255
		c3.718,3.273,6.74,5.725,7.972,5.725c1.228,0,1.469-2.437,1.47-5.695c-5.533-7.595-10.392-12.989-14.164-12.989V210.175
		L459.229,210.175z"/>
	<path fill-rule="evenodd" clip-rule="evenodd" fill="#9AB4A7" d="M425.016,253.102h-44.175c16.057,0,34.722-45.687,44.175-45.687
		V253.102L425.016,253.102z"/>
	<path fill-rule="evenodd" clip-rule="evenodd" fill="#6F8B7D" d="M425.016,207.414c9.453,0,28.118,45.687,44.175,45.687h-44.175
		V207.414L425.016,207.414z"/>
	<path fill-rule="evenodd" clip-rule="evenodd" fill="#EEF5F2" d="M414.206,217.469c-0.001,3.29,0.18,5.758,1.129,5.758
		c0.941,0,3.243-2.428,6.078-5.678c1.418,3.25,2.662,5.678,3.603,5.678v-15.813C422.15,207.414,418.436,211.617,414.206,217.469
		L414.206,217.469z"/>
	<path fill-rule="evenodd" clip-rule="evenodd" fill="#CCD8D2" d="M435.825,217.469c0.001,3.29-0.18,5.758-1.129,5.758
		c-0.941,0-3.243-2.428-6.078-5.678c-1.418,3.25-2.662,5.678-3.603,5.678v-15.813C427.882,207.414,431.595,211.617,435.825,217.469
		L435.825,217.469z"/>
	<path fill-rule="evenodd" clip-rule="evenodd" fill="#9AB4A7" d="M498.307,253.102h-44.175c16.057,0,34.722-45.687,44.175-45.687
		V253.102L498.307,253.102z"/>
	<path fill-rule="evenodd" clip-rule="evenodd" fill="#6F8B7D" d="M498.307,207.414c9.453,0,28.118,45.687,44.175,45.687h-44.175
		V207.414L498.307,207.414z"/>
	<path fill-rule="evenodd" clip-rule="evenodd" fill="#EEF5F2" d="M488.712,215.817c0.003,3.238,0.168,5.654,0.996,5.654
		c0.834,0,2.882-2.452,5.4-5.725c0.335,0.867,2.089,5.725,3.198,5.725v-14.058C495.719,207.414,492.439,210.843,488.712,215.817
		L488.712,215.817z"/>
	<path fill-rule="evenodd" clip-rule="evenodd" fill="#CCD8D2" d="M507.901,215.817c-0.003,3.238-0.168,5.654-0.996,5.654
		c-0.834,0-2.882-2.452-5.4-5.725c-0.335,0.867-2.089,5.725-3.198,5.725v-14.058C500.895,207.414,504.175,210.843,507.901,215.817
		L507.901,215.817z"/>
	<polygon fill-rule="evenodd" clip-rule="evenodd" fill="#FDF7DA" points="0,253.102 1026.6,253.102 1026.6,367.75 0,367.75 
		0,253.102 	"/>
	<path fill-rule="evenodd" clip-rule="evenodd" fill="#B0C845" d="M531.986,253.102H493.05c14.153,0,20.462-26.231,38.935-26.231
		V253.102L531.986,253.102z"/>
	<path fill-rule="evenodd" clip-rule="evenodd" fill="#849932" d="M531.986,253.102h38.935c-14.153,0-20.462-26.231-38.935-26.231
		V253.102L531.986,253.102z"/>
	<path fill-rule="evenodd" clip-rule="evenodd" fill="#B0C845" d="M470.979,253.102h-45.894c16.682,0,24.119-18.648,45.894-18.648
		V253.102L470.979,253.102z"/>
	<path fill-rule="evenodd" clip-rule="evenodd" fill="#849932" d="M470.979,253.102h45.894c-16.682,0-24.119-18.648-45.894-18.648
		V253.102L470.979,253.102z"/>
	<path fill-rule="evenodd" clip-rule="evenodd" fill="#B0C845" d="M632.62,253.102h-52.642c19.135,0,27.665-39.532,52.642-39.532
		V253.102L632.62,253.102z"/>
	<path fill-rule="evenodd" clip-rule="evenodd" fill="#849932" d="M632.62,253.102h52.642c-19.135,0-27.665-39.532-52.642-39.532
		V253.102L632.62,253.102z"/>
	<polygon fill-rule="evenodd" clip-rule="evenodd" fill="#DEDDDD" points="570.988,253.102 567.798,253.102 567.798,178.024 
		569.056,178.024 570.988,253.102 	"/>
	<polygon fill-rule="evenodd" clip-rule="evenodd" fill="#FFFFFF" points="564.608,253.102 567.798,253.102 567.798,178.024 
		566.54,178.024 564.608,253.102 	"/>
	<polygon fill-rule="evenodd" clip-rule="evenodd" fill="#DEDDDD" points="612.958,253.102 610.158,253.102 610.158,187.208 
		611.262,187.208 612.958,253.102 	"/>
	<polygon fill-rule="evenodd" clip-rule="evenodd" fill="#FFFFFF" points="607.358,253.102 610.158,253.102 610.158,187.208 
		609.054,187.208 607.358,253.102 	"/>
	<polygon fill-rule="evenodd" clip-rule="evenodd" fill="#DEDDDD" points="521.171,253.102 517.599,253.102 517.599,169.016 
		519.007,169.016 521.171,253.102 	"/>
	<polygon fill-rule="evenodd" clip-rule="evenodd" fill="#FFFFFF" points="514.026,253.102 517.599,253.102 517.599,169.016 
		516.19,169.016 514.026,253.102 	"/>
	<polygon fill-rule="evenodd" clip-rule="evenodd" fill="#EBEBEB" points="592.919,218.81 558.43,218.81 570.376,243.887 
		576.94,243.887 592.919,218.81 	"/>
	<polygon fill-rule="evenodd" clip-rule="evenodd" fill="#C9E64E" points="0,253.102 1026.6,253.102 1026.6,262.133 0,262.133 
		0,253.102 	"/>
	<path fill-rule="evenodd" clip-rule="evenodd" fill="#ABC341" d="M510.812,291.579h66.082c1.574,0,2.85,1.277,2.85,2.85
		c0,1.574-1.276,2.85-2.85,2.85h-66.082c-1.574,0-2.85-1.276-2.85-2.85S509.238,291.579,510.812,291.579L510.812,291.579z"/>
	<path fill-rule="evenodd" clip-rule="evenodd" fill="#9FB73A" d="M652.519,276.272h-8.806c-0.959,0-1.736,0.78-1.736,1.736
		c0,0.956,0.769,1.728,1.721,1.736H405.051c0.952-0.008,1.721-0.78,1.721-1.736c0-0.956-0.777-1.736-1.736-1.736h-42.611
		c-1.451,0-2.626-1.176-2.626-2.626c0-1.451,1.176-2.626,2.626-2.626c0.768-0.007,1.388-0.629,1.388-1.4c0-0.771-0.627-1.4-1.4-1.4
		L0,268.218v-6.085h1026.6v6.085H652.531c-0.773,0-1.4,0.629-1.4,1.4s0.621,1.394,1.388,1.4H673.2c1.451,0,2.626,1.176,2.626,2.626
		c0,1.451-1.176,2.626-2.626,2.626H652.519L652.519,276.272z"/>
	<path fill-rule="evenodd" clip-rule="evenodd" fill="#C9E64E" d="M402.305,279.744h244.984c2.027,0,3.671,1.644,3.671,3.671
		c0,2.027-1.644,3.671-3.671,3.671H402.305c-2.028,0-3.671-1.644-3.671-3.671C398.634,281.388,400.277,279.744,402.305,279.744
		L402.305,279.744z"/>
	<path fill-rule="evenodd" clip-rule="evenodd" fill="#ABC341" d="M613.253,297.279c1.574,0,2.85-1.276,2.85-2.85
		c0-1.574-1.276-2.85-2.85-2.85h-21.674c-1.574,0-2.85,1.276-2.85,2.85c0,1.574,1.276,2.85,2.85,2.85H613.253L613.253,297.279z"/>
	<path fill-rule="evenodd" clip-rule="evenodd" fill="#ABC341" d="M686.704,276.272c1.451,0,2.626-1.176,2.626-2.626
		c0-1.451-1.176-2.626-2.626-2.626h-4.272c-1.451,0-2.626,1.176-2.626,2.626c0,1.451,1.176,2.626,2.626,2.626H686.704
		L686.704,276.272z"/>
	<polygon fill-rule="evenodd" clip-rule="evenodd" fill="#D8D8D8" points="558.43,218.81 552.122,218.81 536.143,243.887 
		570.376,243.887 558.43,218.81 	"/>
	<polygon fill-rule="evenodd" clip-rule="evenodd" fill="#989898" points="576.94,243.887 536.143,243.887 536.97,245.945 
		577.767,245.945 576.94,243.887 	"/>
	<polygon fill-rule="evenodd" clip-rule="evenodd" fill="#656666" points="576.94,243.887 592.919,218.81 608.897,243.887 
		608.07,245.945 592.919,222.166 577.767,245.945 576.94,243.887 	"/>
	<polygon fill-rule="evenodd" clip-rule="evenodd" fill="#959595" points="603.587,243.114 591.579,224.268 592.919,222.166 
		608.07,245.945 603.587,245.945 603.587,243.114 	"/>
	<polygon fill-rule="evenodd" clip-rule="evenodd" fill="#3B5357" points="586.057,222.091 585.229,220.033 573.432,238.548 
		574.26,240.606 586.057,222.091 	"/>
	<polygon fill-rule="evenodd" clip-rule="evenodd" fill="#537679" points="573.432,238.548 542.259,238.559 543.086,240.617 
		574.26,240.606 573.432,238.548 	"/>
	<polygon fill-rule="evenodd" clip-rule="evenodd" fill="#314054" points="559.408,220.033 554.056,220.033 542.259,238.548 
		568.23,238.548 559.408,220.033 	"/>
	<polygon fill-rule="evenodd" clip-rule="evenodd" fill="#567A81" points="585.229,220.033 559.408,220.033 568.23,238.548 
		573.432,238.548 585.229,220.033 	"/>
	<path fill-rule="evenodd" clip-rule="evenodd" fill="#A0D0C7" d="M568.231,238.549l-4.636,0l-0.001,0.002
		c-0.552,0-1.104,0-1.657,0.001l0.002-0.003l-8.18-0.001l-0.004,0.006c-0.552,0-1.104,0-1.657,0.001l0.005-0.007l-8.18-0.001
		l-0.007,0.011l-1.657,0.001l0.007-0.011h-0.007l0.853-1.397h0.044l4.835-7.588l0.593-0.971h0.026l5.274-8.277l0.172-0.282l5.352,0
		l0.666,1.397l-5.244,0l-4.563,7.162l8.18,0.001l2.884-4.526l0.709,1.487l-1.936,3.039l3.384,0l0.666,1.397l-4.94,0l-4.563,7.162
		l8.18,0.001l2.71-4.253l0.708,1.487l-1.762,2.766l3.08,0L568.231,238.549L568.231,238.549z M552.993,237.151l4.564-7.162
		l-8.18-0.001l-4.563,7.162L552.993,237.151L552.993,237.151z"/>
	<path fill-rule="evenodd" clip-rule="evenodd" fill="#DAFFEA" d="M585.265,220.035l-0.889,1.397h-0.039l-4.563,7.162h0.019
		c-0.296,0.466-0.593,0.931-0.889,1.397h-0.02l-4.564,7.162h0l-0.889,1.397l-5.202,0l-0.666-1.397l5.099,0l4.564-7.162l-8.18-0.001
		l-2.801,4.396l-0.709-1.487l1.854-2.909l-3.24,0l-0.666-1.397l4.796,0l4.563-7.162l-8.18-0.001l-2.627,4.123l-0.709-1.487
		l1.68-2.636l-2.936,0l-0.666-1.397l24.164,0.002l0.001-0.002l1.656,0l-0.001,0.002H585.265L585.265,220.035z M574.502,221.431
		l-4.564,7.162l8.18,0.001l4.564-7.162L574.502,221.431L574.502,221.431z"/>
	<path fill-rule="evenodd" clip-rule="evenodd" fill="#70812A" d="M489.637,271.022h131.311c1.449,0,2.625,1.176,2.625,2.625
		c0,1.449-1.176,2.625-2.625,2.625H489.637c-1.45,0-2.625-1.175-2.625-2.625C487.012,272.197,488.187,271.022,489.637,271.022
		L489.637,271.022z"/>
	<polygon fill-rule="evenodd" clip-rule="evenodd" fill="#A3532F" points="603.587,243.114 591.579,224.268 581.421,240.211 
		596.098,271.022 603.587,271.022 603.587,243.114 	"/>
	<polygon fill-rule="evenodd" clip-rule="evenodd" fill="#DF7A4D" points="576.893,271.022 576.893,249.622 557.069,249.622 
		567.263,271.022 576.893,271.022 	"/>
	<polygon fill-rule="evenodd" clip-rule="evenodd" fill="#CB6538" points="541.453,249.622 541.453,271.022 567.263,271.022 
		557.069,249.622 541.453,249.622 	"/>
	<polygon fill-rule="evenodd" clip-rule="evenodd" fill="#893A18" points="581.421,240.211 577.767,245.945 576.893,245.945 
		576.893,271.022 596.098,271.022 581.421,240.211 	"/>
	<polygon fill-rule="evenodd" clip-rule="evenodd" fill="#4C3823" points="587.276,252.502 592.303,252.502 592.303,263.055 
		587.276,252.502 	"/>
	<polygon fill-rule="evenodd" clip-rule="evenodd" fill="#DF7A4D" points="592.303,252.502 593.572,252.502 593.572,265.719 
		592.303,263.055 592.303,252.502 	"/>
	<polygon fill-rule="evenodd" clip-rule="evenodd" fill="#CB6538" points="593.572,265.719 593.572,271.022 592.303,271.022 
		592.303,263.055 593.572,265.719 	"/>
	<polygon fill-rule="evenodd" clip-rule="evenodd" fill="#392814" points="586.909,252.502 587.276,252.502 592.303,263.055 
		592.303,271.022 586.909,271.022 586.909,252.502 	"/>
	<polygon fill-rule="evenodd" clip-rule="evenodd" fill="#9E4C27" points="541.453,245.945 541.453,249.622 557.069,249.622 
		555.317,245.945 541.453,245.945 	"/>
	<polygon fill-rule="evenodd" clip-rule="evenodd" fill="#BC582E" points="576.893,249.622 576.893,245.945 555.317,245.945 
		557.069,249.622 576.893,249.622 	"/>
	<path fill-rule="evenodd" clip-rule="evenodd" fill="#B0C845" d="M392.177,253.102h-43.571c15.837,0,22.898-25.452,43.571-25.452
		V253.102L392.177,253.102z"/>
	<path fill-rule="evenodd" clip-rule="evenodd" fill="#849932" d="M392.177,253.102h43.571c-15.837,0-22.898-25.452-43.571-25.452
		V253.102L392.177,253.102z"/>
	<path fill-rule="evenodd" clip-rule="evenodd" fill="#93AA39" d="M598.888,240.916c0.725,0,1.312,0.587,1.312,1.312
		c0,0.725-0.587,1.312-1.312,1.312c-0.725,0-1.312-0.587-1.312-1.312C597.576,241.503,598.163,240.916,598.888,240.916
		L598.888,240.916z"/>
	<path fill-rule="evenodd" clip-rule="evenodd" fill="#70812A" d="M615.75,234.751c7.611,0,13.781,6.17,13.781,13.781
		s-6.17,13.781-13.781,13.781c-7.611,0-13.781-6.17-13.781-13.781S608.139,234.751,615.75,234.751L615.75,234.751z"/>
	<path fill-rule="evenodd" clip-rule="evenodd" fill="#93AA39" d="M621.345,237.74c3.188,3.93,1.898,10.26-2.882,14.137
		c-4.78,3.878-11.239,3.835-14.428-0.095c-1.541-1.9-2.036-4.36-1.596-6.832c1.516-5.646,6.527-9.861,12.572-10.179
		C617.514,234.856,619.809,235.847,621.345,237.74L621.345,237.74z"/>
	<path fill-rule="evenodd" clip-rule="evenodd" fill="#93AA39" d="M615.75,262.313c-7.611,0-13.781-6.17-13.781-13.781
		c0-7.611,6.17-13.781,13.781-13.781V262.313L615.75,262.313z"/>
	<path fill-rule="evenodd" clip-rule="evenodd" fill="#D2EB62" d="M615.75,253.589c-4.284,2.024-9.099,1.417-11.714-1.807
		c-1.541-1.9-2.036-4.36-1.596-6.832c1.516-5.646,6.527-9.861,12.572-10.179c0.248,0.008,0.494,0.026,0.737,0.052V253.589
		L615.75,253.589z"/>
	<path fill-rule="evenodd" clip-rule="evenodd" fill="#93AA39" d="M611.167,249.506c1.134,0,2.053,0.919,2.053,2.053
		c0,1.134-0.919,2.053-2.053,2.053c-1.134,0-2.053-0.919-2.053-2.053C609.113,250.425,610.033,249.506,611.167,249.506
		L611.167,249.506z"/>
	<path fill-rule="evenodd" clip-rule="evenodd" fill="#93AA39" d="M607.404,247.287c0.667,0,1.208,0.541,1.208,1.208
		c0,0.667-0.541,1.208-1.208,1.208c-0.667,0-1.208-0.541-1.208-1.208C606.196,247.828,606.737,247.287,607.404,247.287
		L607.404,247.287z"/>
	<polygon fill-rule="evenodd" clip-rule="evenodd" fill="#876542" points="615.143,257.759 612.308,256.29 612.104,256.589 
		615.127,258.748 614.923,271.022 615.75,271.022 615.75,255.352 615.186,255.212 615.143,257.759 	"/>
	<path fill-rule="evenodd" clip-rule="evenodd" fill="#3F3323" d="M616.393,259.742l3.771-2.075l0.353,0.269l-4.105,2.849
		L616.393,259.742L616.393,259.742z M616.602,271.022l-0.288-15.529l-0.564-0.14v15.67H616.602L616.602,271.022z"/>
	<path fill-rule="evenodd" clip-rule="evenodd" fill="#70812A" d="M371.786,230.605c6.616,0,11.979,5.363,11.979,11.979
		c0,6.616-5.363,11.979-11.979,11.979c-6.616,0-11.979-5.363-11.979-11.979C359.807,235.968,365.171,230.605,371.786,230.605
		L371.786,230.605z"/>
	<path fill-rule="evenodd" clip-rule="evenodd" fill="#93AA39" d="M376.651,233.203c2.772,3.416,1.65,8.918-2.505,12.289
		c-4.155,3.371-9.77,3.334-12.541-0.082c-1.34-1.651-1.77-3.79-1.387-5.939c1.318-4.908,5.674-8.571,10.929-8.849
		C373.32,230.696,375.315,231.557,376.651,233.203L376.651,233.203z"/>
	<path fill-rule="evenodd" clip-rule="evenodd" fill="#93AA39" d="M371.786,254.563c-6.616,0-11.979-5.363-11.979-11.979
		c0-6.616,5.363-11.979,11.979-11.979V254.563L371.786,254.563z"/>
	<path fill-rule="evenodd" clip-rule="evenodd" fill="#D2EB62" d="M371.786,246.98c-3.724,1.76-7.909,1.231-10.182-1.57
		c-1.34-1.651-1.77-3.79-1.387-5.939c1.318-4.908,5.674-8.571,10.929-8.849c0.216,0.007,0.429,0.023,0.641,0.045V246.98
		L371.786,246.98z"/>
	<path fill-rule="evenodd" clip-rule="evenodd" fill="#93AA39" d="M367.803,243.431c0.986,0,1.785,0.799,1.785,1.785
		c0,0.986-0.799,1.785-1.785,1.785c-0.986,0-1.785-0.799-1.785-1.785C366.018,244.23,366.817,243.431,367.803,243.431
		L367.803,243.431z"/>
	<path fill-rule="evenodd" clip-rule="evenodd" fill="#93AA39" d="M364.532,241.501c0.58,0,1.05,0.47,1.05,1.05
		c0,0.58-0.47,1.05-1.05,1.05c-0.58,0-1.05-0.47-1.05-1.05C363.482,241.972,363.952,241.501,364.532,241.501L364.532,241.501z"/>
	<polygon fill-rule="evenodd" clip-rule="evenodd" fill="#745E48" points="371.26,250.604 368.794,249.327 368.617,249.588 
		371.245,251.465 371.068,262.133 371.786,262.133 371.786,248.512 371.296,248.39 371.26,250.604 	"/>
	<path fill-rule="evenodd" clip-rule="evenodd" fill="#3F3323" d="M372.345,252.329l3.278-1.804l0.307,0.234l-3.568,2.477
		L372.345,252.329L372.345,252.329z M372.527,262.133l-0.25-13.499l-0.49-0.122v13.621H372.527L372.527,262.133z"/>
	<path fill-rule="evenodd" clip-rule="evenodd" fill="#70812A" d="M420.794,271.019h60.87c1.45,0,2.627,1.176,2.627,2.626
		c0,1.45-1.176,2.626-2.627,2.626h-60.87c-1.451,0-2.626-1.176-2.626-2.626C418.168,272.195,419.344,271.019,420.794,271.019
		L420.794,271.019z"/>
	<polygon fill-rule="evenodd" clip-rule="evenodd" fill="#3B5357" points="495.214,247.663 494.386,245.605 482.589,264.12 
		483.417,266.178 495.214,247.663 	"/>
	<polygon fill-rule="evenodd" clip-rule="evenodd" fill="#537679" points="482.589,264.12 451.416,264.131 452.243,266.19 
		483.417,266.178 482.589,264.12 	"/>
	<polygon fill-rule="evenodd" clip-rule="evenodd" fill="#314054" points="468.565,245.605 463.213,245.605 451.416,264.12 
		477.387,264.12 468.565,245.605 	"/>
	<polygon fill-rule="evenodd" clip-rule="evenodd" fill="#567A81" points="494.386,245.605 468.565,245.605 477.387,264.12 
		482.589,264.12 494.386,245.605 	"/>
	<path fill-rule="evenodd" clip-rule="evenodd" fill="#A0D0C7" d="M477.388,264.122l-4.636,0l-0.001,0.002
		c-0.552,0-1.104,0-1.657,0.001l0.002-0.003l-8.18-0.001l-0.004,0.006c-0.552,0-1.104,0-1.657,0.001l0.005-0.007l-8.18-0.001
		l-0.007,0.011l-1.657,0.001l0.007-0.011h-0.007l0.853-1.397h0.044l4.835-7.588l0.593-0.971h0.026l5.274-8.277l0.172-0.282l5.352,0
		l0.666,1.397l-5.244,0l-4.564,7.162l8.18,0.001l2.884-4.526l0.709,1.487l-1.936,3.039l3.384,0l0.666,1.397l-4.94,0l-4.564,7.162
		l8.18,0.001l2.71-4.253l0.709,1.487l-1.762,2.766l3.08,0L477.388,264.122L477.388,264.122z M462.15,262.724l4.564-7.162
		l-8.18-0.001l-4.563,7.162L462.15,262.724L462.15,262.724z"/>
	<path fill-rule="evenodd" clip-rule="evenodd" fill="#DAFFEA" d="M494.422,245.607l-0.889,1.397h-0.038l-4.564,7.162h0.019
		c-0.296,0.466-0.592,0.931-0.889,1.397h-0.02l-4.564,7.162h0l-0.889,1.397l-5.202,0l-0.666-1.397l5.1,0l4.564-7.162l-8.18-0.001
		l-2.801,4.396l-0.709-1.487l1.854-2.909l-3.24,0l-0.666-1.397l4.796,0l4.563-7.162l-8.18-0.001l-2.627,4.123l-0.709-1.487
		l1.68-2.636l-2.936,0l-0.666-1.397l24.164,0.002l0.001-0.002l1.656,0l-0.001,0.002H494.422L494.422,245.607z M483.659,247.003
		l-4.564,7.162l8.18,0.001l4.564-7.162L483.659,247.003L483.659,247.003z"/>
	<polygon fill-rule="evenodd" clip-rule="evenodd" fill="#33484B" points="471.962,273.646 475.502,273.646 475.502,266.182 
		471.962,266.182 471.962,273.646 	"/>
	<polygon fill-rule="evenodd" clip-rule="evenodd" fill="#3B5357" points="531.709,247.663 530.882,245.605 519.085,264.12 
		519.912,266.178 531.709,247.663 	"/>
	<polygon fill-rule="evenodd" clip-rule="evenodd" fill="#537679" points="519.085,264.12 487.912,264.131 488.739,266.19 
		519.912,266.178 519.085,264.12 	"/>
	<polygon fill-rule="evenodd" clip-rule="evenodd" fill="#314054" points="505.061,245.605 499.709,245.605 487.912,264.12 
		513.882,264.12 505.061,245.605 	"/>
	<polygon fill-rule="evenodd" clip-rule="evenodd" fill="#567A81" points="530.882,245.605 505.061,245.605 513.883,264.12 
		519.085,264.12 530.882,245.605 	"/>
	<path fill-rule="evenodd" clip-rule="evenodd" fill="#A0D0C7" d="M513.883,264.122l-4.636,0l-0.001,0.002
		c-0.552,0-1.104,0-1.657,0.001l0.002-0.003l-8.18-0.001l-0.004,0.006c-0.552,0-1.104,0-1.657,0.001l0.005-0.007l-8.18-0.001
		l-0.007,0.011l-1.657,0.001l0.007-0.011h-0.007l0.853-1.397h0.044l4.835-7.588l0.593-0.971h0.026l5.274-8.277l0.172-0.282l5.352,0
		l0.666,1.397l-5.244,0l-4.563,7.162l8.18,0.001l2.884-4.526l0.709,1.487l-1.936,3.039l3.384,0l0.666,1.397l-4.94,0l-4.563,7.162
		l8.18,0.001l2.71-4.253l0.709,1.487l-1.762,2.766l3.08,0L513.883,264.122L513.883,264.122z M498.645,262.724l4.564-7.162
		l-8.18-0.001l-4.563,7.162L498.645,262.724L498.645,262.724z"/>
	<path fill-rule="evenodd" clip-rule="evenodd" fill="#DAFFEA" d="M530.918,245.607l-0.889,1.397h-0.038l-4.564,7.162h0.019
		c-0.296,0.466-0.592,0.931-0.889,1.397h-0.02l-4.564,7.162h0l-0.889,1.397l-5.202,0l-0.666-1.397l5.1,0l4.564-7.162l-8.18-0.001
		l-2.801,4.396l-0.709-1.487l1.854-2.909l-3.24,0l-0.665-1.397l4.796,0l4.564-7.162l-8.18-0.001l-2.627,4.123l-0.709-1.487
		l1.68-2.636l-2.936,0l-0.666-1.397l24.164,0.002l0.001-0.002l1.656,0l-0.001,0.002H530.918L530.918,245.607z M520.154,247.003
		l-4.564,7.162l8.18,0.001l4.564-7.162L520.154,247.003L520.154,247.003z"/>
	<polygon fill-rule="evenodd" clip-rule="evenodd" fill="#33484B" points="508.457,273.646 511.998,273.646 511.998,266.182 
		508.457,266.182 508.457,273.646 	"/>
	<polygon fill-rule="evenodd" clip-rule="evenodd" fill="#3B5357" points="458.718,247.663 457.891,245.605 446.094,264.12 
		446.921,266.178 458.718,247.663 	"/>
	<polygon fill-rule="evenodd" clip-rule="evenodd" fill="#537679" points="446.094,264.12 414.92,264.131 415.748,266.19 
		446.921,266.178 446.094,264.12 	"/>
	<polygon fill-rule="evenodd" clip-rule="evenodd" fill="#314054" points="432.069,245.605 426.717,245.605 414.92,264.12 
		440.891,264.12 432.069,245.605 	"/>
	<polygon fill-rule="evenodd" clip-rule="evenodd" fill="#567A81" points="457.891,245.605 432.069,245.605 440.891,264.12 
		446.094,264.12 457.891,245.605 	"/>
	<path fill-rule="evenodd" clip-rule="evenodd" fill="#A0D0C7" d="M440.892,264.122l-4.636,0l-0.001,0.002
		c-0.552,0-1.104,0-1.657,0.001l0.002-0.003l-8.18-0.001l-0.004,0.006c-0.552,0-1.104,0-1.657,0.001l0.005-0.007l-8.18-0.001
		l-0.007,0.011l-1.657,0.001l0.007-0.011h-0.007l0.853-1.397h0.044l4.835-7.588l0.593-0.971h0.026l5.274-8.277l0.172-0.282l5.352,0
		l0.666,1.397l-5.244,0l-4.564,7.162l8.18,0.001l2.884-4.526l0.709,1.487l-1.936,3.039l3.384,0l0.666,1.397l-4.94,0l-4.564,7.162
		l8.18,0.001l2.71-4.253l0.709,1.487l-1.762,2.766l3.08,0L440.892,264.122L440.892,264.122z M425.654,262.724l4.564-7.162
		l-8.18-0.001l-4.563,7.162L425.654,262.724L425.654,262.724z"/>
	<path fill-rule="evenodd" clip-rule="evenodd" fill="#DAFFEA" d="M457.926,245.607l-0.889,1.397h-0.038l-4.564,7.162h0.019
		c-0.296,0.466-0.592,0.931-0.889,1.397h-0.02l-4.564,7.162h0l-0.889,1.397l-5.202,0l-0.666-1.397l5.1,0l4.564-7.162l-8.18-0.001
		l-2.801,4.396l-0.709-1.487l1.854-2.909l-3.24,0l-0.666-1.397l4.796,0l4.564-7.162l-8.18-0.001l-2.627,4.123l-0.709-1.487
		l1.68-2.636l-2.936,0l-0.666-1.397l24.164,0.002l0.001-0.002l1.656,0l-0.001,0.002H457.926L457.926,245.607z M447.163,247.003
		l-4.564,7.162l8.18,0.001l4.564-7.162L447.163,247.003L447.163,247.003z"/>
	<polygon fill-rule="evenodd" clip-rule="evenodd" fill="#33484B" points="435.466,273.646 439.007,273.646 439.007,266.182 
		435.466,266.182 435.466,273.646 	"/>
	<path fill-rule="evenodd" clip-rule="evenodd" fill="#70812A" d="M636.408,219.609c4.379,0,8.921,25.513,8.921,33.451
		c0,7.938-5.1,10.577-8.985,10.577c-3.885,0-8.985-2.64-8.985-10.577C627.359,245.122,632.03,219.609,636.408,219.609
		L636.408,219.609z"/>
	<path fill-rule="evenodd" clip-rule="evenodd" fill="#93AA39" d="M639.965,224.517c1.372,7.697,2.53,12.996,1.859,20.867
		c-0.671,7.871-5.792,10.521-9.579,10.042c-3.787-0.479-4.429-3.584-4.665-6.203l-0.016-0.061
		c0.919-9.759,4.655-27.961,8.322-29.566c0.173-0.009,0.347-0.007,0.522,0.011C637.614,219.609,638.833,221.547,639.965,224.517
		L639.965,224.517z"/>
	<path fill-rule="evenodd" clip-rule="evenodd" fill="#93AA39" d="M636.344,263.637c-3.885,0-8.985-2.64-8.985-10.577
		c0-7.899,4.625-33.198,8.985-33.445V263.637L636.344,263.637z"/>
	<path fill-rule="evenodd" clip-rule="evenodd" fill="#D2EB62" d="M636.352,254.743c-1.371,0.646-2.817,0.847-4.107,0.683
		c-3.787-0.479-4.429-3.584-4.665-6.203l-0.016-0.061c0.919-9.759,4.655-27.961,8.322-29.566c0.155-0.008,0.31-0.007,0.466,0.006
		V254.743L636.352,254.743z"/>
	<polygon fill-rule="evenodd" clip-rule="evenodd" fill="#876542" points="635.486,271.022 635.751,256.724 636.344,256.577 
		636.344,271.022 635.486,271.022 	"/>
	<polygon fill-rule="evenodd" clip-rule="evenodd" fill="#3F3323" points="637.018,260.112 640.109,258.412 640.493,258.704 
		637.034,261.104 637.199,271.022 636.344,271.022 636.344,256.577 636.956,256.424 637.018,260.112 	"/>
	<path fill-rule="evenodd" clip-rule="evenodd" fill="#93AA39" d="M633.212,250.507c0.725,0,1.312,0.587,1.312,1.312
		c0,0.725-0.587,1.312-1.312,1.312s-1.312-0.587-1.312-1.312C631.9,251.094,632.488,250.507,633.212,250.507L633.212,250.507z"/>
	<path fill-rule="evenodd" clip-rule="evenodd" fill="#C9E64E" d="M629.472,223.276c0.725,0,1.312,0.587,1.312,1.312
		s-0.587,1.312-1.312,1.312c-0.725,0-1.312-0.587-1.312-1.312S628.747,223.276,629.472,223.276L629.472,223.276z"/>
	<path fill-rule="evenodd" clip-rule="evenodd" fill="#93AA39" d="M625.556,232.641c0.903,0,1.634,0.732,1.634,1.634
		c0,0.903-0.732,1.634-1.634,1.634s-1.634-0.732-1.634-1.634C623.922,233.373,624.654,232.641,625.556,232.641L625.556,232.641z"/>
	<path fill-rule="evenodd" clip-rule="evenodd" fill="#93AA39" d="M648.95,254.708c1.134,0,2.053,0.919,2.053,2.053
		c0,1.134-0.919,2.053-2.053,2.053s-2.053-0.919-2.053-2.053C646.897,255.627,647.816,254.708,648.95,254.708L648.95,254.708z"/>
	<polygon fill-rule="evenodd" clip-rule="evenodd" fill="#567A81" points="563.587,252.502 569.362,252.502 569.362,264.626 
		563.587,252.502 	"/>
	<polygon fill-rule="evenodd" clip-rule="evenodd" fill="#893A18" points="560.487,252.502 562.24,252.502 562.24,265.091 
		560.487,265.091 560.487,252.502 	"/>
	<polygon fill-rule="evenodd" clip-rule="evenodd" fill="#314054" points="562.24,252.502 563.587,252.502 569.362,264.626 
		569.362,265.091 562.24,265.091 562.24,252.502 	"/>
	<polygon fill-rule="evenodd" clip-rule="evenodd" fill="#E6E6E6" points="562.24,252.502 563.587,252.502 564.175,253.738 
		563.475,253.738 563.475,263.856 568.995,263.856 569.362,264.626 569.362,265.091 562.24,265.091 562.24,252.502 	"/>
	<path fill-rule="evenodd" clip-rule="evenodd" fill="#FFFFFF" d="M563.587,252.502h5.775v1.235h-5.187L563.587,252.502
		L563.587,252.502z M568.995,263.856h0.367v0.77L568.995,263.856L568.995,263.856z"/>
	<polygon fill-rule="evenodd" clip-rule="evenodd" fill="#567A81" points="552.084,252.502 557.86,252.502 557.86,264.626 
		552.084,252.502 	"/>
	<polygon fill-rule="evenodd" clip-rule="evenodd" fill="#893A18" points="548.984,252.502 550.738,252.502 550.738,265.091 
		548.984,265.091 548.984,252.502 	"/>
	<polygon fill-rule="evenodd" clip-rule="evenodd" fill="#314054" points="550.738,252.502 552.084,252.502 557.86,264.626 
		557.86,265.091 550.738,265.091 550.738,252.502 	"/>
	<polygon fill-rule="evenodd" clip-rule="evenodd" fill="#E6E6E6" points="550.738,252.502 552.084,252.502 552.673,253.738 
		551.973,253.738 551.973,263.856 557.493,263.856 557.86,264.626 557.86,265.091 550.738,265.091 550.738,252.502 	"/>
	<path fill-rule="evenodd" clip-rule="evenodd" fill="#FFFFFF" d="M552.084,252.502h5.775v1.235h-5.187L552.084,252.502
		L552.084,252.502z M557.493,263.856h0.367v0.77L557.493,263.856L557.493,263.856z"/>
	<path fill-rule="evenodd" clip-rule="evenodd" fill="#93AA39" d="M386.519,248.023c0.725,0,1.312,0.587,1.312,1.312
		c0,0.725-0.587,1.312-1.312,1.312c-0.725,0-1.312-0.587-1.312-1.312C385.207,248.611,385.794,248.023,386.519,248.023
		L386.519,248.023z"/>
	<path fill-rule="evenodd" clip-rule="evenodd" fill="#D2EB62" d="M356.306,244.85c0.725,0,1.312,0.587,1.312,1.312
		c0,0.725-0.587,1.312-1.312,1.312c-0.725,0-1.312-0.587-1.312-1.312C354.994,245.437,355.582,244.85,356.306,244.85L356.306,244.85
		z"/>
</g>
</svg>
