<?xml version="1.0" encoding="utf-8"?>
<!-- Generator: Adobe Illustrator 17.0.0, SVG Export Plug-In . SVG Version: 6.00 Build 0)  -->
<!DOCTYPE svg PUBLIC "-//W3C//DTD SVG 1.1//EN" "http://www.w3.org/Graphics/SVG/1.1/DTD/svg11.dtd">
<svg version="1.1" id="Layer_1" xmlns="http://www.w3.org/2000/svg" xmlns:xlink="http://www.w3.org/1999/xlink" x="0px" y="0px"
	 width="64px" height="64px" viewBox="0 0 64 64" enable-background="new 0 0 64 64" xml:space="preserve">
<g>
	<path fill-rule="evenodd" clip-rule="evenodd" fill="#DEDDDD" d="M32.205,32.215l-0.363-1.643c0.04-1.955,0.058-4.386,0.428-6.859
		c0.544-3.633,4.523-13.937,7.112-21.192c0.262-0.776,0.737-0.795,0.976-0.734L32.205,32.215L32.205,32.215z"/>
	<path fill-rule="evenodd" clip-rule="evenodd" fill="#FFFFFF" d="M32.205,32.215l1.136-1.241c0.943-1.713,2.143-3.827,3.059-6.154
		c1.345-3.418,3.051-14.331,4.437-21.909c0.161-0.803-0.24-1.057-0.479-1.124L32.205,32.215L32.205,32.215z"/>
	<path fill-rule="evenodd" clip-rule="evenodd" fill="#DEDDDD" d="M32.205,32.215l-1.241,1.136
		c-1.713,0.943-3.827,2.143-6.154,3.059c-3.418,1.345-14.331,3.051-21.909,4.437c-0.803,0.162-1.057-0.24-1.124-0.478L32.205,32.215
		L32.205,32.215z"/>
	<path fill-rule="evenodd" clip-rule="evenodd" fill="#FFFFFF" d="M32.205,32.215l-1.643-0.363c-1.955,0.04-4.386,0.058-6.859,0.428
		c-3.633,0.544-13.936,4.523-21.192,7.112c-0.776,0.262-0.795,0.737-0.734,0.976L32.205,32.215L32.205,32.215z"/>
	<path fill-rule="evenodd" clip-rule="evenodd" fill="#DEDDDD" d="M32.205,32.215l0.507,1.604c1.012,1.673,2.243,3.77,3.8,5.726
		c2.288,2.874,10.885,9.808,16.755,14.797c0.615,0.542,1.035,0.32,1.213,0.148L32.205,32.215L32.205,32.215z"/>
	<path fill-rule="evenodd" clip-rule="evenodd" fill="#FFFFFF" d="M32.205,32.215l1.604,0.507c1.673,1.013,3.77,2.243,5.726,3.8
		c2.874,2.288,9.808,10.885,14.797,16.755c0.542,0.615,0.32,1.035,0.148,1.213L32.205,32.215L32.205,32.215z"/>
	<path fill-rule="evenodd" clip-rule="evenodd" fill="#3B5357" d="M32.205,28.479c2.063,0,3.736,1.673,3.736,3.736
		c0,2.063-1.673,3.736-3.736,3.736V28.479L32.205,28.479z"/>
	<path fill-rule="evenodd" clip-rule="evenodd" fill="#87B2AA" d="M32.205,30.226c1.099,0,1.99,0.891,1.99,1.99
		c0,1.099-0.891,1.989-1.99,1.989L32.205,30.226L32.205,30.226L32.205,30.226z"/>
	<path fill-rule="evenodd" clip-rule="evenodd" fill="#719A9D" d="M32.205,35.951c-2.063,0-3.736-1.673-3.736-3.736
		c0-2.063,1.673-3.736,3.736-3.736V35.951L32.205,35.951z"/>
	<path fill-rule="evenodd" clip-rule="evenodd" fill="#C4E8D4" d="M32.205,34.205c-1.099,0-1.99-0.891-1.99-1.99
		c0-1.099,0.891-1.99,1.99-1.99V34.205L32.205,34.205z"/>
</g>
</svg>
