<?xml version="1.0" encoding="utf-8"?>
<!-- Generator: Adobe Illustrator 17.0.0, SVG Export Plug-In . SVG Version: 6.00 Build 0)  -->
<!DOCTYPE svg PUBLIC "-//W3C//DTD SVG 1.1//EN" "http://www.w3.org/Graphics/SVG/1.1/DTD/svg11.dtd">
<svg version="1.1" id="Layer_1" xmlns="http://www.w3.org/2000/svg" xmlns:xlink="http://www.w3.org/1999/xlink" x="0px" y="0px"
	 width="36px" height="36px" viewBox="0 0 36 36" enable-background="new 0 0 36 36" xml:space="preserve">
<g>
	<path fill-rule="evenodd" clip-rule="evenodd" fill="#FDF7DA" d="M18,35.492C8.34,35.492,0.508,27.66,0.508,18S8.34,0.508,18,0.508
		v4.068c-7.414,0-13.423,6.01-13.423,13.423c0,7.414,6.01,13.423,13.423,13.423V35.492L18,35.492z"/>
	<path fill-rule="evenodd" clip-rule="evenodd" fill="#FDF7DA" d="M18,28.739c-5.931,0-10.739-4.808-10.739-10.739
		S12.069,7.261,18,7.261V28.739L18,28.739z"/>
	<path fill-rule="evenodd" clip-rule="evenodd" fill="#FAEAA1" d="M18,35.492c9.66,0,17.492-7.831,17.492-17.492
		S27.66,0.508,18,0.508v4.068c7.414,0,13.423,6.01,13.423,13.423c0,7.414-6.01,13.423-13.423,13.423V35.492L18,35.492z"/>
	<path fill-rule="evenodd" clip-rule="evenodd" fill="#FAEAA1" d="M18,28.739c5.931,0,10.739-4.808,10.739-10.739
		S23.931,7.261,18,7.261V28.739L18,28.739z"/>
</g>
</svg>
