<?xml version="1.0" encoding="utf-8"?>
<!-- Generator: Adobe Illustrator 17.0.0, SVG Export Plug-In . SVG Version: 6.00 Build 0)  -->
<!DOCTYPE svg PUBLIC "-//W3C//DTD SVG 1.1//EN" "http://www.w3.org/Graphics/SVG/1.1/DTD/svg11.dtd">
<svg version="1.1" id="Layer_1" xmlns="http://www.w3.org/2000/svg" xmlns:xlink="http://www.w3.org/1999/xlink" x="0px" y="0px"
	 width="64px" height="64px" viewBox="0 0 64 64" enable-background="new 0 0 64 64" xml:space="preserve">
<g>
	<path fill-rule="evenodd" clip-rule="evenodd" fill="#DEDDDD" d="M32.241,32.187l0.066-1.501c0.487-1.677,1.063-3.77,1.954-5.817
		c1.309-3.008,7.122-10.974,11.031-16.633c0.405-0.609,0.819-0.515,1.012-0.408L32.241,32.187L32.241,32.187z"/>
	<path fill-rule="evenodd" clip-rule="evenodd" fill="#FFFFFF" d="M32.241,32.187l1.267-0.808c1.209-1.26,2.733-2.806,4.06-4.601
		c1.95-2.637,5.943-11.655,8.889-17.87c0.325-0.656,0.037-0.967-0.153-1.08L32.241,32.187L32.241,32.187z"/>
	<path fill-rule="evenodd" clip-rule="evenodd" fill="#DEDDDD" d="M32.241,32.187l-1.333,0.693
		c-1.696,0.417-3.796,0.964-6.015,1.216c-3.259,0.37-13.065-0.68-19.92-1.236c-0.73-0.046-0.856-0.451-0.859-0.673L32.241,32.187
		L32.241,32.187z"/>
	<path fill-rule="evenodd" clip-rule="evenodd" fill="#FFFFFF" d="M32.241,32.187l-1.333-0.693
		c-1.696-0.417-3.796-0.964-6.015-1.216c-3.259-0.37-13.065,0.68-19.92,1.236c-0.73,0.046-0.856,0.451-0.859,0.672L32.241,32.187
		L32.241,32.187z"/>
	<path fill-rule="evenodd" clip-rule="evenodd" fill="#DEDDDD" d="M32.241,32.187l0.066,1.501c0.487,1.677,1.063,3.77,1.954,5.817
		c1.309,3.008,7.121,10.974,11.031,16.633c0.405,0.609,0.819,0.515,1.012,0.408L32.241,32.187L32.241,32.187z"/>
	<path fill-rule="evenodd" clip-rule="evenodd" fill="#FFFFFF" d="M32.241,32.187l1.267,0.808c1.209,1.26,2.733,2.806,4.06,4.601
		c1.95,2.637,5.943,11.655,8.889,17.87c0.325,0.656,0.037,0.967-0.153,1.08L32.241,32.187L32.241,32.187z"/>
	<path fill-rule="evenodd" clip-rule="evenodd" fill="#3B5357" d="M32.241,28.851c1.842,0,3.336,1.494,3.336,3.336
		c0,1.842-1.494,3.336-3.336,3.336V28.851L32.241,28.851z"/>
	<path fill-rule="evenodd" clip-rule="evenodd" fill="#87B2AA" d="M32.242,30.411c0.981,0,1.776,0.795,1.776,1.777
		c0,0.981-0.795,1.776-1.776,1.776L32.242,30.411L32.242,30.411L32.242,30.411z"/>
	<path fill-rule="evenodd" clip-rule="evenodd" fill="#719A9D" d="M32.241,35.523c-1.842,0-3.336-1.494-3.336-3.336
		c0-1.842,1.494-3.336,3.336-3.336V35.523L32.241,35.523z"/>
	<path fill-rule="evenodd" clip-rule="evenodd" fill="#C4E8D4" d="M32.241,33.964c-0.981,0-1.777-0.795-1.777-1.776
		c0-0.981,0.795-1.777,1.777-1.777V33.964L32.241,33.964z"/>
</g>
</svg>
