<?xml version="1.0" encoding="utf-8"?>
<!-- Generator: Adobe Illustrator 17.0.0, SVG Export Plug-In . SVG Version: 6.00 Build 0)  -->
<!DOCTYPE svg PUBLIC "-//W3C//DTD SVG 1.1//EN" "http://www.w3.org/Graphics/SVG/1.1/DTD/svg11.dtd">
<svg version="1.1" id="Layer_1" xmlns="http://www.w3.org/2000/svg" xmlns:xlink="http://www.w3.org/1999/xlink" x="0px" y="0px"
	 width="64px" height="64px" viewBox="0 0 64 64" enable-background="new 0 0 64 64" xml:space="preserve">
<g>
	<path fill-rule="evenodd" clip-rule="evenodd" fill="#DEDDDD" d="M32.23,32.208l0.397-1.257c0.793-1.311,1.758-2.954,2.978-4.487
		c1.793-2.252,8.53-7.686,13.13-11.595c0.482-0.424,0.811-0.251,0.95-0.116L32.23,32.208L32.23,32.208z"/>
	<path fill-rule="evenodd" clip-rule="evenodd" fill="#FFFFFF" d="M32.23,32.208l1.257-0.397c1.311-0.793,2.954-1.758,4.487-2.978
		c2.252-1.793,7.686-8.53,11.595-13.13c0.424-0.482,0.251-0.811,0.116-0.95L32.23,32.208L32.23,32.208z"/>
	<path fill-rule="evenodd" clip-rule="evenodd" fill="#DEDDDD" d="M32.23,32.208l-1.288,0.285c-1.532-0.032-3.437-0.045-5.375-0.335
		c-2.847-0.426-10.921-3.544-16.607-5.573c-0.609-0.205-0.623-0.577-0.575-0.765L32.23,32.208L32.23,32.208z"/>
	<path fill-rule="evenodd" clip-rule="evenodd" fill="#FFFFFF" d="M32.23,32.208l-0.973-0.89c-1.343-0.739-2.999-1.679-4.823-2.397
		c-2.679-1.054-11.23-2.391-17.169-3.477c-0.63-0.127-0.828,0.188-0.881,0.375L32.23,32.208L32.23,32.208z"/>
	<path fill-rule="evenodd" clip-rule="evenodd" fill="#DEDDDD" d="M32.23,32.208l-0.285,1.287c0.032,1.532,0.045,3.437,0.335,5.375
		c0.426,2.847,3.544,10.921,5.573,16.607c0.205,0.608,0.577,0.623,0.765,0.575L32.23,32.208L32.23,32.208z"/>
	<path fill-rule="evenodd" clip-rule="evenodd" fill="#FFFFFF" d="M32.23,32.208l0.89,0.973c0.739,1.343,1.68,2.999,2.397,4.823
		c1.054,2.679,2.391,11.23,3.477,17.169c0.126,0.63-0.188,0.828-0.375,0.881L32.23,32.208L32.23,32.208z"/>
	<path fill-rule="evenodd" clip-rule="evenodd" fill="#3B5357" d="M32.23,29.28c1.617,0,2.928,1.311,2.928,2.928
		c0,1.617-1.311,2.928-2.928,2.928V29.28L32.23,29.28z"/>
	<path fill-rule="evenodd" clip-rule="evenodd" fill="#87B2AA" d="M32.23,30.649c0.861,0,1.559,0.698,1.559,1.559
		c0,0.861-0.698,1.559-1.559,1.559L32.23,30.649L32.23,30.649L32.23,30.649z"/>
	<path fill-rule="evenodd" clip-rule="evenodd" fill="#719A9D" d="M32.23,35.136c-1.617,0-2.928-1.311-2.928-2.928
		c0-1.617,1.311-2.928,2.928-2.928V35.136L32.23,35.136z"/>
	<path fill-rule="evenodd" clip-rule="evenodd" fill="#C4E8D4" d="M32.23,33.767c-0.861,0-1.559-0.698-1.559-1.559
		c0-0.861,0.698-1.559,1.559-1.559V33.767L32.23,33.767z"/>
</g>
</svg>
